<svg width="23" height="23" viewBox="0 0 23 23" fill="none" xmlns="http://www.w3.org/2000/svg">
<g clip-path="url(#clip0_9263_21740)">
<path d="M2.24219 22.0852C2.24219 22.0706 4.91456 19.8022 11.2163 19.8022C17.3375 19.8022 20.1905 22.0706 20.1905 22.0852H2.24219Z" fill="#F6CC90"/>
<path d="M11.2161 19.8022C10.8251 19.8022 10.4482 19.811 10.085 19.8274C15.4476 20.0751 17.9576 22.0716 17.9576 22.0852H20.1902C20.1902 22.0706 17.3373 19.8022 11.2161 19.8022Z" fill="#F0C17F"/>
<path d="M15.2907 4.00732C14.5605 6.1253 12.593 6.48979 12.593 6.48979C12.593 6.48979 11.2892 4.92877 12.0004 2.8658C12.7495 0.69279 14.7171 0.328308 14.7171 0.328308C14.7171 0.328308 16.0304 1.86184 15.2907 4.00732Z" fill="#C5E866"/>
<path d="M14.7178 0.328308C14.7178 0.328308 14.1977 0.424704 13.5906 0.813525C13.9242 1.42885 14.3377 2.58314 13.8468 4.00727C13.4935 5.03186 12.8508 5.64604 12.2812 6.00715C12.4483 6.3156 12.5936 6.4897 12.5936 6.4897C12.5936 6.4897 14.5613 6.12526 15.2914 4.00723C16.031 1.86184 14.7178 0.328308 14.7178 0.328308Z" fill="#B2D94B"/>
<path d="M13.3297 13.9645C12.1302 14.1349 11.2472 13.8899 11.2472 13.8899C11.2472 13.8899 10.4834 10.8254 12.8701 8.43115C15.384 5.90924 18.3753 6.73924 18.3753 6.73924C18.3753 6.73924 19.0315 9.24062 17.2927 11.5651" fill="#9CC042"/>
<path d="M18.3743 6.73926C18.3743 6.73926 17.5722 6.51683 16.4498 6.65236C16.7529 6.69036 16.9297 6.73926 16.9297 6.73926C16.9297 6.73926 17.5858 9.24064 15.847 11.5651L11.8841 13.9645C11.8402 13.9707 11.7969 13.9762 11.7539 13.9814C12.1278 14.0275 12.6821 14.0564 13.3287 13.9645L17.2917 11.5651C19.0305 9.24064 18.3743 6.73926 18.3743 6.73926Z" fill="#85AA18"/>
<path d="M8.38612 12.3573C10.5152 14.0353 10.1519 16.4406 10.1519 16.4406C10.1519 16.4406 7.85305 17.3203 5.77928 15.6859C3.59488 13.9642 3.95818 11.559 3.95818 11.559C3.95818 11.559 6.22939 10.6574 8.38612 12.3573Z" fill="#C5E866"/>
<path d="M5.94429 8.8964C8.08793 11.6276 11.156 11.158 11.156 11.158C11.156 11.158 12.2753 8.20539 10.1874 5.54506C7.98804 2.74289 4.91997 3.21252 4.91997 3.21252C4.91997 3.21252 3.77281 6.12969 5.94429 8.8964Z" fill="#9CC042"/>
<path d="M16.7382 15.2027C14.8988 16.4745 13.0987 15.5982 13.0987 15.5982C13.0987 15.5982 12.9708 13.5657 14.7625 12.327C16.6497 11.0222 18.4498 11.8985 18.4498 11.8985C18.4498 11.8985 18.6016 13.9144 16.7382 15.2027Z" fill="#C5E866"/>
<path d="M18.4494 11.8985C18.4494 11.8985 17.5111 11.4419 16.2791 11.6789C16.7285 11.764 17.0048 11.8985 17.0048 11.8985C17.0048 11.8985 17.1565 13.9144 15.2931 15.2027C14.7944 15.5475 14.2987 15.7342 13.8408 15.8235C14.5354 15.9553 15.6293 15.9691 16.7378 15.2027C18.6011 13.9144 18.4494 11.8985 18.4494 11.8985Z" fill="#B2D94B"/>
<path d="M20.2444 21.7146C19.5951 21.2569 18.8548 20.9161 18.116 20.6319C16.7831 20.1189 14.5649 19.5105 11.4928 19.4756C11.5427 19.0508 11.6609 18.4405 11.9377 17.761C12.2127 17.0859 12.5849 16.4771 13.0513 15.9361C13.2703 16.0263 13.834 16.2238 14.5707 16.2238C15.2529 16.2238 16.0832 16.0542 16.9243 15.4728C18.9195 14.0933 18.7833 11.9638 18.7765 11.8738C18.7678 11.7574 18.6978 11.6544 18.5929 11.6033C18.5629 11.5887 18.279 11.4544 17.8303 11.3633C18.1962 10.789 18.4646 10.1656 18.63 9.50413C18.7326 9.09325 18.0957 8.93408 17.9929 9.34488C17.8185 10.0425 17.5159 10.693 17.0933 11.2803C16.3824 11.2635 15.4896 11.4246 14.5751 12.0569C13.8935 12.5282 13.4678 13.1017 13.2023 13.6498C12.6261 13.7232 12.1309 13.6962 11.7954 13.655C12.4624 12.7552 14.2012 10.5744 16.1587 9.43545C16.5248 9.22248 16.1945 8.65483 15.8285 8.86789C13.9236 9.97622 12.2655 11.9492 11.4664 12.9967C11.4203 11.9747 11.5975 10.1722 13.102 8.66293C14.0825 7.67927 15.2496 7.1093 16.5708 6.96896C17.2623 6.8955 17.8186 6.96524 18.0956 7.01514C18.1248 7.18648 18.1607 7.46315 18.1668 7.81047C18.1742 8.22994 18.8308 8.22486 18.8233 7.79896C18.8114 7.11749 18.697 6.67443 18.6922 6.65591C18.6625 6.54284 18.575 6.4541 18.4624 6.42285C18.4295 6.41374 17.6424 6.2002 16.5316 6.31279C15.5094 6.4165 14.004 6.82795 12.6369 8.19929C12.5229 8.31372 12.4162 8.42964 12.3156 8.54657C12.5 7.97883 12.7013 7.36478 12.9071 6.74723C13.5018 6.56578 14.9705 5.94402 15.6013 4.1143C16.3931 1.81744 15.0252 0.183183 14.9666 0.114717C14.8904 0.0257196 14.7726 -0.0159117 14.6574 0.00545117C14.5694 0.0217797 12.4924 0.431527 11.6901 2.75877C11.0239 4.69097 11.9732 6.20099 12.2633 6.59913C12.0719 7.17418 11.8849 7.74428 11.7122 8.27577C11.5793 7.3875 11.2328 6.34532 10.4456 5.34236C9.24974 3.81863 7.80333 3.23168 6.80045 3.00755C5.71077 2.76402 4.90406 2.88278 4.87022 2.88799C4.75461 2.90568 4.65716 2.98356 4.61435 3.09238C4.60511 3.11585 4.38754 3.6768 4.3133 4.53705C4.27697 4.95901 4.93112 5.01535 4.96754 4.59352C5.00934 4.10892 5.10228 3.73069 5.16444 3.51955C5.44584 3.50288 6.00635 3.49964 6.68383 3.65443C7.97926 3.9504 9.07109 4.65472 9.92902 5.74777C10.7418 6.78339 11.1447 7.98479 11.1267 9.31865C11.1208 9.75326 11.0687 10.1323 11.0112 10.4234C9.71237 8.00453 7.87337 6.14614 7.79273 6.06524C7.49383 5.76533 7.02884 6.22879 7.32765 6.52874C7.34705 6.54822 9.24278 8.46528 10.4986 10.8584C10.2052 10.8517 9.82452 10.8193 9.39757 10.7248C8.11208 10.4404 7.03707 9.75703 6.20247 8.69366C5.62138 7.95322 5.23663 7.1315 5.0589 6.25133C4.97511 5.83624 4.33138 5.96617 4.41526 6.3813C4.61343 7.36286 5.04095 8.27726 5.68595 9.09907C6.85369 10.5869 8.28741 11.1565 9.28446 11.3722C9.78132 11.4798 10.2934 11.5308 10.8018 11.5142V12.6966V12.7163V17.0429C10.7027 16.8293 10.5957 16.6271 10.4831 16.4356C10.5276 16.047 10.6895 13.7549 8.58894 12.0994C6.30976 10.3031 3.93652 11.2141 3.83658 11.2538C3.72805 11.2969 3.65053 11.3944 3.6331 11.51C3.61712 11.6159 3.26779 14.1249 5.57559 15.9437C6.6475 16.7885 7.7676 17.0091 8.64501 17.0091C9.21437 17.0091 9.68129 16.9162 9.96671 16.8408C10.4238 17.6391 10.6941 18.5204 10.7752 19.4781C9.07608 19.5068 7.49089 19.7019 6.05788 20.06C5.64699 20.1627 5.80616 20.7996 6.21709 20.697C7.60607 20.3499 9.14678 20.1613 10.8018 20.1343V20.889C10.8018 21.3125 11.4584 21.3125 11.4584 20.889V20.1325C15.3307 20.1709 17.8055 21.119 19.0361 21.7569H3.35937C3.67846 21.5872 4.08698 21.3949 4.59071 21.2033C4.98654 21.0528 4.75308 20.4389 4.3573 20.5895C3.53951 20.9006 2.9572 21.2161 2.61263 21.4261C1.91309 21.8524 1.91309 21.9551 1.91309 22.0852C1.91309 22.2666 2.06004 22.4136 2.24141 22.4136H20.1897C20.6888 22.4135 20.4924 21.8894 20.2444 21.7146ZM14.9485 12.597C16.3339 11.6393 17.6495 11.955 18.1227 12.1207C18.1043 12.6278 17.9208 13.9855 16.5508 14.9327C15.3087 15.7916 14.1002 15.5855 13.5497 15.4174C14.1969 14.8117 14.984 14.3088 15.9078 13.913C16.2971 13.7462 16.0386 13.1426 15.6493 13.3094C14.8158 13.6665 14.1287 14.0917 13.5616 14.5472C13.7323 13.9379 14.1114 13.1758 14.9485 12.597ZM12.4719 14.3532C12.6189 14.3532 12.7757 14.3479 12.94 14.336C12.8319 14.7112 12.7901 15.0411 12.7751 15.2729C12.1534 15.9329 11.7368 16.6138 11.4584 17.2171V14.2699C11.6887 14.3096 12.0396 14.3532 12.4719 14.3532ZM12.3108 2.97283C12.8606 1.3781 14.1061 0.849591 14.5859 0.701364C14.8709 1.12149 15.524 2.32363 14.9805 3.90037C14.5735 5.08097 13.7566 5.66359 13.1783 5.93925C13.6047 4.67919 14.0259 3.48545 14.3315 2.736C14.4915 2.34385 13.8834 2.09586 13.7235 2.48805C13.4046 3.26994 12.9702 4.50168 12.5343 5.79107C12.2357 5.21974 11.889 4.19651 12.3108 2.97283ZM5.9821 15.428C5.14479 14.7681 4.60428 13.9282 4.37555 12.9316C4.26339 12.4429 4.25735 12.0329 4.26703 11.8041C4.82667 11.6473 6.54283 11.3229 8.18247 12.6152C8.99658 13.2568 9.52076 14.0835 9.74052 15.0722C9.77247 15.2159 9.79519 15.3527 9.8113 15.4804C9.59264 15.2168 9.37013 14.9846 9.15589 14.7836C8.02317 13.7208 6.89882 13.2758 6.8515 13.2573C6.45685 13.1036 6.21858 13.7156 6.61322 13.8692C6.6236 13.8733 7.66552 14.2857 8.70656 15.2625C9.03918 15.5746 9.33208 15.9054 9.58599 16.2539C8.85856 16.4022 7.36267 16.5161 5.9821 15.428Z" fill="#060606"/>
</g>
<defs>
<clipPath id="clip0_9263_21740">
<rect width="22.4135" height="22.4135" fill="white"/>
</clipPath>
</defs>
</svg>
