<svg width="48" height="48" viewBox="0 0 48 48" fill="none" xmlns="http://www.w3.org/2000/svg">
  <path d="M32.7716 25.4438L28.1021 32.9733C27.8354 33.4146 27.4584 33.5853 26.9711 33.4853C26.4837 33.3853 26.1734 33.0979 26.0401 32.6233L24.4021 26.0088L9.28157 41.0558C8.94157 41.4034 8.54374 41.5773 8.08807 41.5773C7.63241 41.5773 7.23457 41.4034 6.89457 41.0558C6.55491 40.7158 6.38507 40.3179 6.38507 39.8623C6.38507 39.4066 6.55491 39.0088 6.89457 38.6688L21.9651 23.6103L15.3271 21.9718C14.8524 21.8384 14.5671 21.5283 14.4711 21.0413C14.3751 20.5539 14.5437 20.1729 14.9771 19.8983L22.5066 15.1788L21.8946 6.37526C21.8612 5.86726 22.0716 5.49659 22.5256 5.26326C22.9796 5.02992 23.3939 5.07992 23.7686 5.41326L30.5241 11.0948L38.7151 7.81126C39.1817 7.64459 39.5857 7.73193 39.9271 8.07326C40.2684 8.41459 40.3557 8.81859 40.1891 9.28526L36.8556 17.4763L42.5371 24.2438C42.8704 24.6184 42.9287 25.0328 42.7121 25.4868C42.4954 25.9408 42.1331 26.1511 41.6251 26.1178L32.7716 25.4438ZM6.32307 11.9983C6.14041 11.8236 6.04907 11.6183 6.04907 11.3823C6.04907 11.1466 6.14041 10.9374 6.32307 10.7548L8.76657 8.31126C8.94124 8.13659 9.14641 8.04926 9.38207 8.04926C9.61807 8.04926 9.82741 8.13659 10.0101 8.31126L12.3916 10.7048C12.5739 10.8874 12.6651 11.0946 12.6651 11.3263C12.6651 11.5583 12.5739 11.7656 12.3916 11.9483L9.94807 14.3918C9.76541 14.5741 9.55807 14.6653 9.32607 14.6653C9.09441 14.6653 8.88724 14.5741 8.70457 14.3918L6.32307 11.9983ZM27.9741 27.0733L31.0521 22.1168L36.8966 22.5548L33.0926 18.0743L35.2946 12.6678L29.8881 14.8578L25.3956 11.0538L25.8456 16.8983L20.8771 20.0143L26.5716 21.4288L27.9741 27.0733ZM36.0521 41.6773L33.6086 39.2458C33.4262 39.0631 33.3434 38.8559 33.3601 38.6243C33.3767 38.3923 33.4762 38.1849 33.6586 38.0023L36.0521 35.6208C36.2267 35.4381 36.4321 35.3468 36.6681 35.3468C36.9037 35.3468 37.1129 35.4381 37.2956 35.6208L39.7391 38.0523C39.9137 38.2349 39.9927 38.4423 39.9761 38.6743C39.9594 38.9059 39.8637 39.1131 39.6891 39.2958L37.2956 41.6773C37.1129 41.8599 36.9057 41.9513 36.6741 41.9513C36.4421 41.9513 36.2347 41.8599 36.0521 41.6773Z" fill="black" />
</svg>